<svg width="33" height="33" viewBox="0 0 33 33" fill="none" xmlns="http://www.w3.org/2000/svg">
<path d="M4.80691 16.0821C4.80691 15.8181 4.89491 15.5871 5.08191 15.4001C5.26891 15.2241 5.49991 15.1361 5.74191 15.1361H7.98591C8.23891 15.1361 8.44791 15.2241 8.62391 15.4111C8.78891 15.5981 8.87691 15.8181 8.87691 16.0821C8.87691 16.3461 8.79991 16.5661 8.63491 16.7531C8.46991 16.9401 8.24991 17.0281 7.99691 17.0281H5.75291C5.49991 17.0281 5.27991 16.9401 5.09291 16.7531C5.00178 16.6668 4.92937 16.5627 4.88017 16.4473C4.83097 16.3318 4.80603 16.2075 4.80691 16.0821ZM7.95291 23.7051C7.95291 23.4521 8.04091 23.2321 8.20591 23.0341L9.82291 21.4611C9.98791 21.2851 10.2079 21.2081 10.4719 21.2081C10.7359 21.2081 10.9559 21.2961 11.1319 21.4611C11.3079 21.6261 11.3959 21.8351 11.3959 22.0881C11.3959 22.3521 11.3079 22.5941 11.1319 22.7921L9.56991 24.3541C9.11891 24.7061 8.66791 24.7061 8.21691 24.3541C8.13117 24.2694 8.06355 24.1683 8.01817 24.0567C7.97278 23.9451 7.95058 23.8255 7.95291 23.7051ZM7.95291 8.48105C7.95291 8.22805 8.04091 8.00805 8.20591 7.81005C8.42591 7.62305 8.65691 7.53505 8.90991 7.53505C9.15191 7.53505 9.37191 7.62305 9.55891 7.79905L11.1319 9.41605C11.3079 9.58106 11.3959 9.80105 11.3959 10.0651C11.3959 10.3291 11.3079 10.5491 11.1319 10.7251C10.9559 10.9011 10.7359 10.9891 10.4719 10.9891C10.2079 10.9891 9.98791 10.9011 9.82291 10.7251L8.21691 9.15205C8.13002 9.06373 8.06185 8.95877 8.01649 8.84347C7.97112 8.72818 7.9495 8.60491 7.95291 8.48105ZM10.7579 16.0821C10.7579 15.0591 11.0109 14.1021 11.5279 13.2221C12.0449 12.3421 12.7379 11.6381 13.6289 11.1211C14.5199 10.6041 15.4659 10.3511 16.4889 10.3511C17.2589 10.3511 17.9959 10.5051 18.7109 10.8131C19.4149 11.1211 20.0309 11.5281 20.5369 12.0451C21.0539 12.5621 21.4609 13.1671 21.7579 13.8711C22.0549 14.5751 22.2089 15.3231 22.2089 16.0931C22.2089 17.1271 21.9559 18.0841 21.4389 18.9641C20.9219 19.8441 20.2289 20.5371 19.3489 21.0541C18.4689 21.5711 17.5119 21.8241 16.4779 21.8241C15.4439 21.8241 14.4869 21.5711 13.6069 21.0541C12.7269 20.5371 12.0339 19.8441 11.5169 18.9641C11.0219 18.0731 10.7579 17.1161 10.7579 16.0821ZM15.5539 24.6401C15.5539 24.3761 15.6419 24.1561 15.8289 23.9801C16.0159 23.8041 16.2359 23.7161 16.4889 23.7161C16.7529 23.7161 16.9839 23.8041 17.1599 23.9801C17.3359 24.1561 17.4239 24.3761 17.4239 24.6401V26.8291C17.4239 27.0931 17.3359 27.3241 17.1489 27.5111C16.9619 27.6981 16.7419 27.7861 16.4889 27.7861C16.2359 27.7861 16.0049 27.6981 15.8289 27.5111C15.7391 27.4221 15.6684 27.3157 15.6211 27.1984C15.5738 27.0811 15.5509 26.9555 15.5539 26.8291V24.6401ZM15.5539 7.59005V5.34605C15.5539 5.09306 15.6419 4.87306 15.8289 4.68606C16.0159 4.49906 16.2359 4.40005 16.4999 4.40005C16.7639 4.40005 16.9729 4.48805 17.1599 4.67505C17.3469 4.86205 17.4349 5.08205 17.4349 5.33505V7.59005C17.4349 7.84305 17.3469 8.05205 17.1599 8.22805C16.9729 8.40405 16.7529 8.48105 16.4999 8.48105C16.2469 8.48105 16.0159 8.39305 15.8399 8.22805C15.6639 8.06305 15.5539 7.84305 15.5539 7.59005ZM15.6749 12.3421C16.6319 12.4631 17.4349 12.8811 18.0839 13.6071C18.7329 14.3331 19.0629 15.1911 19.0629 16.1701C19.0629 17.0831 18.7769 17.8861 18.2049 18.5901C17.6329 19.2831 16.9069 19.7341 16.0269 19.9211C16.2469 19.9431 16.4119 19.9651 16.5109 19.9651C17.5779 19.9651 18.5019 19.5801 19.2609 18.8211C20.0199 18.0621 20.4049 17.1491 20.4049 16.0711C20.4049 15.0151 20.0199 14.1131 19.2609 13.3541C18.5019 12.6061 17.5889 12.2321 16.5109 12.2321C16.2139 12.2541 15.9389 12.2871 15.6749 12.3421ZM21.6259 22.0881C21.6259 21.8351 21.7139 21.6261 21.8789 21.4721C22.0439 21.2961 22.2529 21.2191 22.4949 21.2191C22.7589 21.2191 22.9789 21.3071 23.1549 21.4721L24.7609 23.0451C24.9369 23.2321 25.0249 23.4631 25.0249 23.7161C25.0249 23.9691 24.9369 24.1891 24.7609 24.3651C24.3209 24.7061 23.8809 24.7061 23.4409 24.3651L21.8789 22.8031C21.7102 22.6035 21.6202 22.3493 21.6259 22.0881ZM21.6259 10.0761C21.6259 9.80105 21.7139 9.58105 21.8789 9.42705L23.4409 7.81005C23.6142 7.64027 23.8473 7.54544 24.0899 7.54605C24.3539 7.54605 24.5739 7.63405 24.7499 7.82105C24.9369 8.00805 25.0249 8.22805 25.0249 8.48105C25.0249 8.75605 24.9369 8.98705 24.7609 9.16305L23.1549 10.7361C22.9569 10.9121 22.7369 11.0001 22.4949 11.0001C22.2419 11.0001 22.0439 10.9121 21.8789 10.7361C21.7139 10.5601 21.6259 10.3401 21.6259 10.0761ZM24.1119 16.0821C24.1119 15.8181 24.1999 15.5981 24.3759 15.4001C24.5519 15.2241 24.7609 15.1361 25.0029 15.1361H27.2249C27.4779 15.1361 27.6979 15.2351 27.8849 15.4221C28.0719 15.6091 28.1709 15.8291 28.1709 16.0821C28.1709 16.3351 28.0719 16.5551 27.8849 16.7421C27.6979 16.9291 27.4779 17.0171 27.2249 17.0171H25.0029C24.7499 17.0171 24.5299 16.9291 24.3649 16.7421C24.1999 16.5551 24.1119 16.3461 24.1119 16.0821Z" fill="#F1FAFF"/>
</svg>
